# xmcd
#
# Track frame offsets:
#	150
#	6345
#	22020
#	37271
#	50414
#	61883
#	75842
#	85329
#	99309
#	108572
#	123872
#	133373
#	148381
#	157771
#	170464
#	178714
#	187489
#	197055
#	210706
#	218923
#	234217
#	247019
#	261301
#	269773
#	281098
#
# Disc length: 3922 seconds
#
# Revision: 0
# Processed by: cddbd v1.5.2PL0 Copyright (c) Steve Scherf et al.
# Submitted via: EZCDAudioConverter 2.1.5.1
#
DISCID=7e0f5019
DTITLE=Nashville Mandolines and Fiddles - 100 Classic Songs CD 3
DYEAR=2009
DGENRE=country
TTITLE0=Cotton Eyed Joe
TTITLE1=His Eye Is On The Sparrow
TTITLE2=What A Friend We Have In Jesus
TTITLE3=By The Light Of The Silvery Moon
TTITLE4=Church In The Wildwood
TTITLE5=Life's Railway To Heaven
TTITLE6=Home On The Range
TTITLE7=Angel Band
TTITLE8=Eighth Of January
TTITLE9=Great Speckled Bird
TTITLE10=Billy In The Lowground
TTITLE11=I Never Will Mary
TTITLE12=Salor's Hornpipe
TTITLE13=In The Shade Of The Old Apple Tree
TTITLE14=Yellow Rose Of Texas
TTITLE15=Old Spinning Whee
TTITLE16=Blackberry Blossom
TTITLE17=Onward Christian Soldier
TTITLE18=Sally Goodin'
TTITLE19=Rose Of Sharon
TTITLE20=Wabash Cannonball
TTITLE21=Down To The River To Pray
TTITLE22=Oh Them Golden Slippers
TTITLE23=When I Grow Too Old To Dream
TTITLE24=My Country 'tis Of Thee
EXTD=
EXTT0=
EXTT1=
EXTT2=
EXTT3=
EXTT4=
EXTT5=
EXTT6=
EXTT7=
EXTT8=
EXTT9=
EXTT10=
EXTT11=
EXTT12=
EXTT13=
EXTT14=
EXTT15=
EXTT16=
EXTT17=
EXTT18=
EXTT19=
EXTT20=
EXTT21=
EXTT22=
EXTT23=
EXTT24=
PLAYORDER=
